<?xml version="1.0" encoding="utf-8"?>
<!-- Generator: Adobe Illustrator 24.0.0, SVG Export Plug-In . SVG Version: 6.00 Build 0)  -->
<svg version="1.1" id="Camada_1" xmlns="http://www.w3.org/2000/svg" xmlns:xlink="http://www.w3.org/1999/xlink" x="0px" y="0px"
	 viewBox="0 0 866 179" style="enable-background:new 0 0 866 179;" xml:space="preserve">
<style type="text/css">
	.st0{fill:#E5AD10;}
	.st1{fill:#3C0008;}
	.st2{fill:#FFFFFF;}
</style>
<g>
	<g>
		<circle class="st0" cx="89.64" cy="89.94" r="89.58"/>
		<g>
			<path class="st1" d="M48.02,126.38c-0.15,7.68-0.73,12.77-0.73,12.77l14.56-0.01l54.39-0.02l15.81-0.01c0,0-0.59-5.08-0.74-12.77
				L48.02,126.38z"/>
			<path class="st1" d="M48.01,121.77l83.3-0.03c-0.32-16.03,1.25-43.39,13.98-59.6C118.44,68.15,98,37.89,91.67,27.13l1.63,63.4
				c2.64,1.33,4.45,4.06,4.45,7.22c0,4.47-3.62,8.1-8.1,8.1c-4.47,0-8.1-3.62-8.1-8.1c0-3.16,1.81-5.89,4.45-7.23l1.58-63.4
				C81.26,37.9,60.84,68.18,33.99,62.18C46.72,78.38,48.32,105.74,48.01,121.77z"/>
		</g>
	</g>
	<g>
		<g>
			<g>
				<path class="st0" d="M207.01,21.07h7.29v38.09h-7.29V21.07z"/>
				<path class="st0" d="M261.1,21.07h7.07v38.09h-6.91l-19.59-26.23v26.23h-7.13V21.07h6.91l19.64,26.29V21.07z"/>
				<path class="st0" d="M306.35,28.09c-2.05-0.65-3.86-0.98-5.41-0.98c-1.74,0-3.12,0.33-4.14,0.98c-1.02,0.65-1.52,1.56-1.52,2.72
					c0,1.05,0.35,1.93,1.06,2.64c0.71,0.71,1.6,1.29,2.67,1.74c1.07,0.45,2.53,0.95,4.38,1.5c2.57,0.76,4.69,1.52,6.34,2.29
					c1.65,0.76,3.06,1.89,4.22,3.37c1.16,1.49,1.74,3.45,1.74,5.88c0,2.32-0.63,4.34-1.88,6.07c-1.25,1.72-2.98,3.04-5.17,3.95
					c-2.19,0.91-4.71,1.36-7.54,1.36c-2.98,0-5.88-0.55-8.71-1.66c-2.83-1.11-5.3-2.58-7.4-4.43l3.05-6.2
					c1.92,1.78,4.08,3.17,6.48,4.19c2.39,1.02,4.62,1.52,6.69,1.52c2.03,0,3.63-0.39,4.79-1.17c1.16-0.78,1.74-1.84,1.74-3.18
					c0-1.09-0.35-1.99-1.06-2.69c-0.71-0.71-1.6-1.28-2.69-1.71c-1.09-0.44-2.57-0.92-4.46-1.47c-2.58-0.76-4.68-1.51-6.31-2.23
					c-1.63-0.73-3.03-1.82-4.19-3.29c-1.16-1.47-1.74-3.4-1.74-5.8c0-2.21,0.59-4.14,1.77-5.8c1.18-1.65,2.85-2.93,5.01-3.84
					c2.16-0.91,4.65-1.36,7.48-1.36c2.47,0,4.91,0.36,7.32,1.09c2.41,0.73,4.56,1.7,6.45,2.94l-2.94,6.37
					C310.4,29.67,308.4,28.75,306.35,28.09z"/>
				<path class="st0" d="M329.23,21.07h31.07v6.48h-11.86v31.62h-7.35V27.55h-11.86V21.07z"/>
				<path class="st0" d="M376.36,21.07h7.29v38.09h-7.29V21.07z"/>
				<path class="st0" d="M399.65,21.07h31.07v6.48h-11.86v31.62h-7.35V27.55h-11.86V21.07z"/>
				<path class="st0" d="M455.92,50.57c1.71,1.71,3.99,2.56,6.86,2.56c2.86,0,5.12-0.85,6.77-2.56c1.65-1.7,2.48-4.06,2.48-7.07
					V21.07h7.29v22.42c0,3.3-0.67,6.18-2.01,8.63c-1.34,2.45-3.26,4.33-5.74,5.63c-2.48,1.31-5.41,1.96-8.79,1.96
					c-3.41,0-6.38-0.65-8.9-1.96c-2.52-1.31-4.45-3.18-5.8-5.63c-1.34-2.45-2.01-5.32-2.01-8.63V21.07h7.29v22.42
					C453.36,46.51,454.21,48.86,455.92,50.57z"/>
				<path class="st0" d="M494.56,21.07h31.07v6.48h-11.86v31.62h-7.35V27.55h-11.86V21.07z"/>
				<path class="st0" d="M567.13,23.14c3.1,1.71,5.54,4.05,7.32,7.02c1.78,2.98,2.67,6.28,2.67,9.9c0,3.63-0.89,6.94-2.67,9.93
					c-1.78,2.99-4.22,5.36-7.32,7.1c-3.1,1.74-6.54,2.61-10.31,2.61c-3.77,0-7.21-0.87-10.31-2.61c-3.1-1.74-5.54-4.11-7.32-7.1
					c-1.78-2.99-2.67-6.3-2.67-9.93c0-3.63,0.89-6.93,2.67-9.9c1.78-2.97,4.22-5.31,7.32-7.02c3.1-1.7,6.54-2.56,10.31-2.56
					C560.59,20.58,564.02,21.44,567.13,23.14z M550.45,28.83c-2,1.14-3.57,2.7-4.74,4.68c-1.16,1.98-1.74,4.16-1.74,6.56
					c0,2.39,0.59,4.59,1.77,6.58c1.18,2,2.76,3.57,4.74,4.74c1.98,1.16,4.13,1.74,6.45,1.74c2.29,0,4.41-0.58,6.37-1.74
					c1.96-1.16,3.51-2.74,4.65-4.74c1.14-1.99,1.71-4.19,1.71-6.58c0-2.39-0.57-4.58-1.71-6.56c-1.14-1.98-2.69-3.54-4.65-4.68
					c-1.96-1.14-4.08-1.71-6.37-1.71C554.6,27.11,552.44,27.69,550.45,28.83z"/>
			</g>
			<g>
				<path class="st0" d="M639.61,23.5c3.01,1.61,5.37,3.87,7.07,6.77c1.71,2.9,2.56,6.19,2.56,9.85c0,3.66-0.86,6.94-2.59,9.82
					s-4.11,5.14-7.16,6.78c-3.05,1.63-6.51,2.45-10.39,2.45h-15.56V21.07h15.84C633.19,21.07,636.6,21.88,639.61,23.5z
					 M635.83,51.14c1.87-1.07,3.33-2.56,4.38-4.46c1.05-1.91,1.58-4.07,1.58-6.5c0-2.43-0.54-4.62-1.63-6.56
					c-1.09-1.94-2.59-3.45-4.49-4.52c-1.91-1.07-4.04-1.61-6.39-1.61h-8.44v25.25h8.71C631.87,52.75,633.96,52.21,635.83,51.14z"/>
				<path class="st0" d="M666.5,21.07h27.92v6.37h-20.63v9.41h18.5v6.37h-18.5v9.58h21.28v6.37H666.5V21.07z"/>
			</g>
		</g>
		<g>
			<g>
				<path class="st2" d="M256.35,89.88c5.78,3.19,10.32,7.58,13.61,13.19c3.29,5.61,4.94,11.88,4.94,18.81
					c0,6.94-1.66,13.21-4.99,18.81c-3.33,5.61-7.9,10-13.72,13.19c-5.82,3.19-12.33,4.78-19.55,4.78h-29.64V85.1h29.95
					C244.11,85.1,250.57,86.7,256.35,89.88z M251.1,145.96c4.17-2.38,7.46-5.68,9.88-9.88c2.42-4.2,3.63-8.9,3.63-14.08
					c0-5.26-1.23-9.99-3.68-14.19c-2.45-4.2-5.8-7.51-10.04-9.93c-4.24-2.42-8.95-3.63-14.14-3.63H217.1v55.28h20.08
					C242.29,149.53,246.93,148.34,251.1,145.96z"/>
				<path class="st2" d="M283,85.1h10.09v73.57H283V85.1z"/>
				<path class="st2" d="M355.31,158.67l-14.61-23.12c-1.68,0.14-3.05,0.21-4.1,0.21h-18.71v22.91H307.8V85.1h28.8
					c9.32,0,16.52,2.16,21.6,6.47c5.08,4.31,7.62,10.42,7.62,18.34c0,5.96-1.38,10.97-4.15,15.03c-2.77,4.06-6.75,7.01-11.93,8.83
					l17.13,24.91H355.31z M336.6,126.62c6.31,0,11.14-1.38,14.5-4.15c3.36-2.77,5.04-6.85,5.04-12.24c0-5.26-1.68-9.23-5.04-11.93
					s-8.2-4.05-14.5-4.05h-18.71v32.37H336.6z"/>
				<path class="st2" d="M377.48,85.1h51.08v9.14h-40.99v22.7h36.68v9.14h-36.68v23.44h42.25v9.14h-52.34V85.1z"/>
				<path class="st2" d="M439.81,85.1h10.09v73.57h-10.09V85.1z"/>
				<path class="st2" d="M455.16,85.1h57.49v9.25h-23.75v64.32H478.8V94.35h-23.65V85.1z"/>
				<path class="st2" d="M564.94,89.41c5.92,3.29,10.6,7.8,14.03,13.51c3.43,5.71,5.15,12,5.15,18.87c0,6.87-1.72,13.19-5.15,18.97
					c-3.43,5.78-8.11,10.34-14.03,13.66c-5.92,3.33-12.42,4.99-19.5,4.99c-7.08,0-13.58-1.66-19.5-4.99
					c-5.92-3.33-10.6-7.88-14.03-13.66s-5.15-12.1-5.15-18.97c0-6.87,1.72-13.15,5.15-18.87c3.43-5.71,8.09-10.21,13.98-13.51
					c5.89-3.29,12.4-4.94,19.55-4.94C552.52,84.47,559.01,86.12,564.94,89.41z M531.3,97.29c-4.38,2.52-7.87,5.94-10.46,10.25
					c-2.59,4.31-3.89,9.06-3.89,14.24c0,5.19,1.3,9.95,3.89,14.29c2.59,4.35,6.08,7.8,10.46,10.35c4.38,2.56,9.13,3.84,14.24,3.84
					c5.11,0,9.83-1.28,14.14-3.84c4.31-2.56,7.74-6.01,10.3-10.35c2.56-4.34,3.84-9.11,3.84-14.29c0-5.19-1.28-9.93-3.84-14.24
					c-2.56-4.31-5.99-7.72-10.3-10.25c-4.31-2.52-9.02-3.78-14.14-3.78C540.43,93.51,535.68,94.77,531.3,97.29z"/>
			</g>
			<g>
				<path class="st2" d="M661.05,158.67l-14.61-23.12c-1.68,0.14-3.05,0.21-4.1,0.21h-18.71v22.91h-10.09V85.1h28.8
					c9.32,0,16.52,2.16,21.6,6.47c5.08,4.31,7.62,10.42,7.62,18.34c0,5.96-1.38,10.97-4.15,15.03c-2.77,4.06-6.74,7.01-11.93,8.83
					l17.13,24.91H661.05z M642.34,126.62c6.31,0,11.14-1.38,14.51-4.15c3.36-2.77,5.04-6.85,5.04-12.24c0-5.26-1.68-9.23-5.04-11.93
					c-3.36-2.7-8.2-4.05-14.51-4.05h-18.71v32.37H642.34z"/>
				<path class="st2" d="M683.23,85.1h51.08v9.14h-40.99v22.7H730v9.14h-36.68v23.44h42.25v9.14h-52.34V85.1z"/>
				<path class="st2" d="M808.62,158.67l-7.78-17.87h-38.78l-7.67,17.87h-10.62l32.69-73.57h10.51l32.58,73.57H808.62z
					 M766.05,131.66h30.9L781.4,95.93L766.05,131.66z"/>
				<path class="st2" d="M823.97,85.1h10.09v64.43h32.16v9.14h-42.25V85.1z"/>
			</g>
		</g>
	</g>
</g>
</svg>
